{
    "asset" : {
        "generator" : "Khronos glTF Blender I/O v1.5.17",
        "version" : "2.0"
    },
    "scene" : 0,
    "scenes" : [
        {
            "name" : "Scene",
            "nodes" : [
                0
            ]
        }
    ],
    "nodes" : [
        {
            "mesh" : 0,
            "name" : "Scene Original Stl"
        }
    ],
    "meshes" : [
        {
            "name" : "Scene Original Stl",
            "primitives" : [
                {
                    "attributes" : {
                        "POSITION" : 0,
                        "NORMAL" : 1
                    },
                    "indices" : 2
                }
            ]
        }
    ],
    "accessors" : [
        {
            "bufferView" : 0,
            "componentType" : 5126,
            "count" : 88998,
            "max" : [
                0.32029613852500916,
                1.42649245262146,
                0.3457241654396057
            ],
            "min" : [
                -0.2848373353481293,
                -1.8559650182724,
                -0.2618148624897003
            ],
            "type" : "VEC3"
        },
        {
            "bufferView" : 1,
            "componentType" : 5126,
            "count" : 88998,
            "type" : "VEC3"
        },
        {
            "bufferView" : 2,
            "componentType" : 5125,
            "count" : 88998,
            "type" : "SCALAR"
        }
    ],
    "bufferViews" : [
        {
            "buffer" : 0,
            "byteLength" : 1067976,
            "byteOffset" : 0
        },
        {
            "buffer" : 0,
            "byteLength" : 1067976,
            "byteOffset" : 1067976
        },
        {
            "buffer" : 0,
            "byteLength" : 355992,
            "byteOffset" : 2135952
        }
    ],
    "buffers" : [
        {
            "byteLength" : 2491944,
            "uri" : "data:application/octet-stream;base64,"
        }
    ]
}
